<svg width="24" height="24" viewBox="0 0 24 24" fill="none" xmlns="http://www.w3.org/2000/svg">
<path d="M21.04 20.44L21.5954 20.944L21.5957 20.9436L21.04 20.44ZM19.4 21.62L19.1156 20.926L19.1115 20.9277L19.4 21.62ZM10.75 19.29L10.3076 19.8956L10.3086 19.8963L10.75 19.29ZM7.47 16.49L6.93709 17.0178L6.94224 17.0229L7.47 16.49ZM4.68 13.22L4.07114 13.658L4.07368 13.6614L4.68 13.22ZM2.72 9.81L2.02877 10.101L2.0297 10.1032L2.72 9.81ZM2.36 4.61L3.05637 4.88855L3.05792 4.88459L2.36 4.61ZM3.51 2.94L4.02467 3.48555L4.03046 3.48008L4.03614 3.47449L3.51 2.94ZM6.4 2.18L6.07541 2.85622L6.08571 2.86097L6.4 2.18ZM7.07 2.74L6.45332 3.16694L6.45831 3.17398L7.07 2.74ZM9.39 6.01L8.7783 6.44399L8.78135 6.44823L9.39 6.01ZM9.79 6.71L9.09574 6.99401L9.10064 7.00544L9.79 6.71ZM9.72 8.03L9.07935 7.64004L9.07305 7.6504L9.06708 7.66096L9.72 8.03ZM9.16 8.74L8.62967 8.20967L8.62454 8.2148L8.61951 8.22003L9.16 8.74ZM8.4 9.53L8.93033 10.0603L8.93546 10.0552L8.94049 10.05L8.4 9.53ZM8.27 10.16L7.54239 10.3419L7.55275 10.3833L7.56775 10.4233L8.27 10.16ZM8.35 10.36L7.63849 10.5972L7.6596 10.6605L7.69158 10.7191L8.35 10.36ZM9.28 11.64L8.70742 12.1245L8.71287 12.1308L9.28 11.64ZM10.73 13.22L10.1946 13.7453L10.1996 13.7503L10.2046 13.7553L10.73 13.22ZM12.32 14.69L11.8346 15.2617L11.8355 15.2625L12.32 14.69ZM13.61 15.61L13.2591 16.2728L13.2944 16.2915L13.3315 16.3064L13.61 15.61ZM13.79 15.69L13.4946 16.3794L13.5105 16.3862L13.5267 16.3922L13.79 15.69ZM14.45 15.56L13.9232 15.0262L13.9197 15.0297L14.45 15.56ZM15.21 14.81L15.7368 15.3438L15.7403 15.3403L15.21 14.81ZM15.93 14.25L16.2769 14.9149L16.2988 14.9035L16.32 14.8906L15.93 14.25ZM17.95 14.56L18.3842 13.9485L18.378 13.9441L18.3717 13.9398L17.95 14.56ZM21.26 16.91L20.8258 17.5216L20.8331 17.5266L21.26 16.91ZM21.81 17.55L22.5064 17.2715L22.5016 17.2596L22.4965 17.2479L21.81 17.55ZM17.75 9C17.75 9.41421 18.0858 9.75 18.5 9.75C18.9142 9.75 19.25 9.41421 19.25 9H17.75ZM17.33 6.73L16.7801 7.24004L16.7817 7.24174L17.33 6.73ZM15 4.75C14.5858 4.75 14.25 5.08579 14.25 5.5C14.25 5.91421 14.5858 6.25 15 6.25V4.75ZM21.25 9C21.25 9.41421 21.5858 9.75 22 9.75C22.4142 9.75 22.75 9.41421 22.75 9H21.25ZM15 1.25C14.5858 1.25 14.25 1.58579 14.25 2C14.25 2.41421 14.5858 2.75 15 2.75V1.25ZM21.22 18.33C21.22 18.5775 21.1653 18.8383 21.0418 19.0997L22.3982 19.7403C22.6147 19.2817 22.72 18.8025 22.72 18.33H21.22ZM21.0418 19.0997C20.9016 19.3967 20.7219 19.6742 20.4843 19.9364L21.5957 20.9436C21.9381 20.5658 22.1984 20.1633 22.3982 19.7403L21.0418 19.0997ZM20.4846 19.936C20.0606 20.4032 19.6105 20.7232 19.1156 20.926L19.6844 22.314C20.4095 22.0168 21.0394 21.5568 21.5954 20.944L20.4846 19.936ZM19.1115 20.9277C18.6064 21.1382 18.0548 21.25 17.45 21.25V22.75C18.2452 22.75 18.9936 22.6018 19.6885 22.3123L19.1115 20.9277ZM17.45 21.25C16.5486 21.25 15.5587 21.0379 14.484 20.58L13.896 21.96C15.1213 22.4821 16.3114 22.75 17.45 22.75V21.25ZM14.484 20.58C13.3915 20.1145 12.2905 19.4839 11.1914 18.6837L10.3086 19.8963C11.4895 20.7561 12.6885 21.4455 13.896 21.96L14.484 20.58ZM11.1924 18.6844C10.0733 17.8669 9.01176 16.9614 7.99776 15.9571L6.94224 17.0229C8.00824 18.0786 9.12671 19.0331 10.3076 19.8956L11.1924 18.6844ZM8.00289 15.9622C6.9985 14.9481 6.09323 13.8868 5.28632 12.7786L4.07368 13.6614C4.92677 14.8332 5.8815 15.9519 6.93711 17.0178L8.00289 15.9622ZM5.28885 12.7821C4.49525 11.6787 3.8649 10.587 3.4103 9.51677L2.0297 10.1032C2.5351 11.293 3.22475 12.4813 4.07115 13.6579L5.28885 12.7821ZM3.41123 9.51896C2.9628 8.45396 2.75 7.46299 2.75 6.54H1.25C1.25 7.69701 1.5172 8.88604 2.02877 10.101L3.41123 9.51896ZM2.75 6.54C2.75 5.94888 2.85414 5.39408 3.05636 4.88854L1.66364 4.33146C1.38586 5.02592 1.25 5.77112 1.25 6.54H2.75ZM3.05792 4.88459C3.25506 4.38355 3.56991 3.91456 4.02467 3.48555L2.99533 2.39445C2.39009 2.96544 1.94494 3.61645 1.66208 4.33541L3.05792 4.88459ZM4.03614 3.47449C4.56293 2.95593 5.08187 2.75 5.59 2.75V1.25C4.61813 1.25 3.73707 1.66407 2.98386 2.40551L4.03614 3.47449ZM5.59 2.75C5.76498 2.75 5.93314 2.78783 6.07545 2.85614L6.72455 1.50386C6.36686 1.33217 5.97502 1.25 5.59 1.25V2.75ZM6.08571 2.86097C6.23429 2.92955 6.35581 3.02601 6.45336 3.16691L7.68664 2.31309C7.42419 1.93399 7.08571 1.67045 6.71429 1.49903L6.08571 2.86097ZM6.45831 3.17398L8.77831 6.44398L10.0017 5.57602L7.68169 2.30602L6.45831 3.17398ZM8.78135 6.44823C8.93418 6.66049 9.03246 6.83904 9.09584 6.99397L10.4842 6.42603C10.3675 6.14096 10.2058 5.85951 9.99865 5.57177L8.78135 6.44823ZM9.10064 7.00544C9.16141 7.14722 9.18 7.25575 9.18 7.32H10.68C10.68 7.00425 10.5986 6.69278 10.4794 6.41456L9.10064 7.00544ZM9.18 7.32C9.18 7.40903 9.15514 7.51553 9.07935 7.64004L10.3606 8.41996C10.5649 8.08447 10.68 7.71097 10.68 7.32H9.18ZM9.06708 7.66096C8.97896 7.81685 8.83569 8.00365 8.62967 8.20967L9.69033 9.27033C9.96431 8.99635 10.201 8.70315 10.3729 8.39904L9.06708 7.66096ZM8.61951 8.22003L7.85951 9.01003L8.94049 10.05L9.70049 9.25997L8.61951 8.22003ZM7.86967 8.99967C7.60741 9.26193 7.49 9.58812 7.49 9.93H8.99C8.99 9.92933 8.98982 9.95268 8.97601 9.98752C8.96164 10.0238 8.94194 10.0487 8.93033 10.0603L7.86967 8.99967ZM7.49 9.93C7.49 10.081 7.51008 10.2127 7.54239 10.3419L8.99761 9.9781C8.98992 9.94735 8.99 9.93895 8.99 9.93H7.49ZM7.56775 10.4233C7.58932 10.4809 7.61099 10.5313 7.62302 10.5597C7.63761 10.5942 7.63904 10.5988 7.63849 10.5972L9.06151 10.1228C9.04096 10.0612 9.01739 10.0058 9.00448 9.97527C8.98902 9.93873 8.98068 9.91915 8.97225 9.89666L7.56775 10.4233ZM7.69158 10.7191C7.90702 11.1141 8.25419 11.5888 8.70746 12.1245L9.85254 11.1555C9.42581 10.6512 9.15298 10.2659 9.00842 10.0009L7.69158 10.7191ZM8.71287 12.1308C9.1705 12.6596 9.66123 13.2016 10.1946 13.7453L11.2654 12.6947C10.7588 12.1784 10.2895 11.6604 9.84713 11.1492L8.71287 12.1308ZM10.2046 13.7553C10.7507 14.2912 11.2851 14.7952 11.8346 15.2617L12.8054 14.1183C12.2949 13.6848 11.7893 13.2088 11.2554 12.6847L10.2046 13.7553ZM11.8355 15.2625C12.3777 15.7213 12.8536 16.0582 13.2591 16.2728L13.9609 14.9472C13.6864 14.8018 13.3023 14.5387 12.8045 14.1175L11.8355 15.2625ZM13.3315 16.3064C13.3366 16.3084 13.3476 16.3132 13.38 16.328C13.4073 16.3406 13.4492 16.3599 13.4946 16.3794L14.0854 15.0006C14.0608 14.9901 14.0377 14.9794 14.005 14.9645C13.9774 14.9518 13.9334 14.9316 13.8885 14.9136L13.3315 16.3064ZM13.5267 16.3922C13.7163 16.4633 13.8919 16.48 14.04 16.48V14.98C14.0224 14.98 14.0188 14.979 14.0236 14.9797C14.0262 14.9801 14.0305 14.9809 14.036 14.9823C14.0416 14.9837 14.0475 14.9856 14.0533 14.9878L13.5267 16.3922ZM14.04 16.48C14.4196 16.48 14.7374 16.3333 14.9803 16.0903L13.9197 15.0297C13.9221 15.0272 13.9402 15.0105 13.9736 14.9962C14.0077 14.9817 14.0339 14.98 14.04 14.98V16.48ZM14.9768 16.0938L15.7368 15.3438L14.6832 14.2762L13.9232 15.0262L14.9768 16.0938ZM15.7403 15.3403C15.96 15.1207 16.1389 14.987 16.2769 14.9149L15.5831 13.5851C15.2611 13.753 14.96 13.9993 14.6797 14.2797L15.7403 15.3403ZM16.32 14.8906C16.4472 14.8132 16.5438 14.79 16.64 14.79V13.29C16.2362 13.29 15.8728 13.4068 15.54 13.6094L16.32 14.8906ZM16.64 14.79C16.7201 14.79 16.8238 14.806 16.966 14.8642L17.534 13.4758C17.2362 13.354 16.9399 13.29 16.64 13.29V14.79ZM16.966 14.8642C17.1231 14.9284 17.3061 15.0291 17.5283 15.1802L18.3717 13.9398C18.0939 13.7509 17.8169 13.5916 17.534 13.4758L16.966 14.8642ZM17.5158 15.1715L20.8258 17.5215L21.6942 16.2985L18.3842 13.9485L17.5158 15.1715ZM20.8331 17.5266C20.9966 17.6398 21.0773 17.747 21.1235 17.8521L22.4965 17.2479C22.3227 16.853 22.0434 16.5402 21.6869 16.2934L20.8331 17.5266ZM21.1136 17.8285C21.1862 18.01 21.22 18.1649 21.22 18.33H22.72C22.72 17.9351 22.6338 17.59 22.5064 17.2715L21.1136 17.8285ZM19.25 9C19.25 8.53018 19.075 8.02657 18.8445 7.57833C18.6063 7.11492 18.2729 6.64111 17.8783 6.21826L16.7817 7.24174C17.087 7.56889 17.3387 7.93008 17.5105 8.26417C17.69 8.61343 17.75 8.86982 17.75 9H19.25ZM17.8799 6.21997C17.1773 5.46247 16.1421 4.75 15 4.75V6.25C15.5379 6.25 16.2027 6.61753 16.7801 7.24003L17.8799 6.21997ZM22.75 9C22.75 4.71579 19.2842 1.25 15 1.25V2.75C18.4558 2.75 21.25 5.54421 21.25 9H22.75Z" fill="#FEFFFF"/>
</svg>
