<svg width="20" height="20" viewBox="0 0 20 20" fill="none" xmlns="http://www.w3.org/2000/svg">
<path d="M17.5332 17.0334L18.0886 17.5374L18.0889 17.5371L17.5332 17.0334ZM16.1665 18.0168L15.8821 17.3228L15.878 17.3244L16.1665 18.0168ZM8.95817 16.0751L8.51579 16.6807L8.51673 16.6814L8.95817 16.0751ZM6.22484 13.7417L5.69193 14.2695L5.69708 14.2746L6.22484 13.7417ZM3.89984 11.0167L3.29097 11.4547L3.29352 11.4582L3.89984 11.0167ZM2.2665 8.17508L1.57527 8.46613L1.5762 8.46831L2.2665 8.17508ZM1.9665 3.84175L2.66287 4.1203L2.66443 4.11634L1.9665 3.84175ZM2.92484 2.45008L3.4395 2.99563L3.4453 2.99016L3.45098 2.98457L2.92484 2.45008ZM5.33317 1.81675L5.00859 2.49297L5.01888 2.49772L5.33317 1.81675ZM5.8915 2.28341L5.27482 2.71035L5.27982 2.71739L5.8915 2.28341ZM7.82484 5.00841L7.21314 5.44241L7.21619 5.44664L7.82484 5.00841ZM8.15817 5.59175L7.46392 5.87576L7.46881 5.88719L8.15817 5.59175ZM8.09984 6.69175L7.45919 6.30179L7.45288 6.31215L7.44692 6.32271L8.09984 6.69175ZM7.63317 7.28341L7.10284 6.75308L7.09771 6.75822L7.09268 6.76345L7.63317 7.28341ZM6.99984 7.94175L7.53017 8.47208L7.5353 8.46695L7.54033 8.46172L6.99984 7.94175ZM6.8915 8.46675L6.1639 8.64865L6.17426 8.69009L6.18926 8.73009L6.8915 8.46675ZM6.95817 8.63341L6.24666 8.87059L6.26777 8.93393L6.29975 8.99255L6.95817 8.63341ZM7.73317 9.70008L7.1606 10.1846L7.16604 10.1909L7.73317 9.70008ZM8.9415 11.0167L8.40615 11.542L8.4111 11.5471L8.41615 11.552L8.9415 11.0167ZM10.2665 12.2417L9.78108 12.8135L9.78205 12.8143L10.2665 12.2417ZM11.3415 13.0084L10.9906 13.6713L11.0259 13.6899L11.063 13.7048L11.3415 13.0084ZM11.4915 13.0751L11.1961 13.7644L11.212 13.7713L11.2282 13.7773L11.4915 13.0751ZM12.0415 12.9667L11.5147 12.4329L11.5112 12.4364L12.0415 12.9667ZM12.6748 12.3417L13.2017 12.8756L13.2052 12.8721L12.6748 12.3417ZM13.2748 11.8751L13.6218 12.54L13.6437 12.5286L13.6648 12.5157L13.2748 11.8751ZM14.9582 12.1334L15.3924 11.5219L15.3862 11.5175L15.3799 11.5132L14.9582 12.1334ZM17.7165 14.0917L17.2823 14.7033L17.2896 14.7084L17.7165 14.0917ZM18.1748 14.6251L18.8712 14.3465L18.8665 14.3347L18.8613 14.323L18.1748 14.6251ZM14.6665 7.50008C14.6665 7.9143 15.0023 8.25008 15.4165 8.25008C15.8307 8.25008 16.1665 7.9143 16.1665 7.50008H14.6665ZM14.4415 5.60841L13.8916 6.11845L13.8932 6.12015L14.4415 5.60841ZM12.4998 3.83341C12.0856 3.83341 11.7498 4.1692 11.7498 4.58341C11.7498 4.99763 12.0856 5.33341 12.4998 5.33341V3.83341ZM17.5832 7.50008C17.5832 7.9143 17.919 8.25008 18.3332 8.25008C18.7474 8.25008 19.0832 7.9143 19.0832 7.50008H17.5832ZM12.4998 0.916748C12.0856 0.916748 11.7498 1.25253 11.7498 1.66675C11.7498 2.08096 12.0856 2.41675 12.4998 2.41675V0.916748ZM17.5582 15.2751C17.5582 15.4626 17.5168 15.6617 17.4217 15.8632L18.778 16.5037C18.9662 16.1051 19.0582 15.6876 19.0582 15.2751H17.5582ZM17.4217 15.8632C17.3097 16.1002 17.1667 16.3209 16.9774 16.5298L18.0889 17.5371C18.383 17.2126 18.6066 16.8667 18.778 16.5037L17.4217 15.8632ZM16.9778 16.5294C16.6355 16.9066 16.2753 17.1616 15.8821 17.3228L16.4509 18.7107C17.0743 18.4552 17.6142 18.0602 18.0886 17.5374L16.9778 16.5294ZM15.878 17.3244C15.4729 17.4933 15.0296 17.5834 14.5415 17.5834V19.0834C15.22 19.0834 15.8601 18.9569 16.455 18.7091L15.878 17.3244ZM14.5415 17.5834C13.8101 17.5834 13.0019 17.4114 12.1188 17.0351L11.5308 18.4151C12.5645 18.8555 13.5729 19.0834 14.5415 19.0834V17.5834ZM12.1188 17.0351C11.218 16.6513 10.3087 16.1306 9.39962 15.4688L8.51673 16.6814C9.50763 17.4029 10.515 17.9822 11.5308 18.4151L12.1188 17.0351ZM9.40055 15.4694C8.47313 14.792 7.59326 14.0414 6.7526 13.2089L5.69708 14.2746C6.58975 15.1587 7.52655 15.9581 8.51579 16.6807L9.40055 15.4694ZM6.75772 13.214C5.925 12.3732 5.17473 11.4936 4.50616 10.5753L3.29352 11.4582C4.00827 12.4399 4.808 13.377 5.69195 14.2695L6.75772 13.214ZM4.50869 10.5788C3.85175 9.66549 3.3314 8.76371 2.95681 7.88186L1.5762 8.46831C2.00161 9.46978 2.58126 10.468 3.29098 11.4547L4.50869 10.5788ZM2.95773 7.88404C2.58931 7.00904 2.4165 6.19974 2.4165 5.45008H0.916504C0.916504 6.43375 1.1437 7.44113 1.57528 8.46613L2.95773 7.88404ZM2.4165 5.45008C2.4165 4.9723 2.50064 4.52583 2.66286 4.12029L1.27015 3.56321C1.03236 4.15766 0.916504 4.79453 0.916504 5.45008H2.4165ZM2.66443 4.11634C2.82156 3.71696 3.07308 3.34131 3.4395 2.99563L2.41017 1.90454C1.89326 2.39219 1.51145 2.94987 1.26858 3.56716L2.66443 4.11634ZM3.45098 2.98457C3.8711 2.57101 4.27338 2.41675 4.65817 2.41675V0.916748C3.80963 0.916748 3.04524 1.27916 2.3987 1.91559L3.45098 2.98457ZM4.65817 2.41675C4.78648 2.41675 4.90798 2.44458 5.00862 2.49289L5.65772 1.14061C5.3417 0.988915 4.99653 0.916748 4.65817 0.916748V2.41675ZM5.01888 2.49772C5.12413 2.54629 5.20732 2.61276 5.27486 2.71032L6.50815 1.85651C6.27569 1.52074 5.97555 1.2872 5.64746 1.13578L5.01888 2.49772ZM5.27982 2.71739L7.21315 5.44239L8.43653 4.57443L6.50319 1.84943L5.27982 2.71739ZM7.21619 5.44664C7.33902 5.61724 7.41563 5.75745 7.46401 5.87572L8.85233 5.30777C8.75071 5.05938 8.61066 4.81626 8.43349 4.57019L7.21619 5.44664ZM7.46881 5.88719C7.51458 5.99397 7.52484 6.0675 7.52484 6.10008H9.02484C9.02484 5.816 8.95177 5.53953 8.84753 5.29631L7.46881 5.88719ZM7.52484 6.10008C7.52484 6.14911 7.51165 6.21561 7.45919 6.30179L8.74049 7.08171C8.92136 6.78455 9.02484 6.45105 9.02484 6.10008H7.52484ZM7.44692 6.32271C7.38047 6.44026 7.26886 6.58707 7.10284 6.75308L8.1635 7.81375C8.39748 7.57976 8.60254 7.32657 8.75276 7.06079L7.44692 6.32271ZM7.09268 6.76345L6.45934 7.42178L7.54033 8.46172L8.17366 7.80338L7.09268 6.76345ZM6.46951 7.41142C6.22558 7.65534 6.1165 7.95987 6.1165 8.27508H7.6165C7.6165 8.28775 7.61424 8.32318 7.59606 8.36906C7.57731 8.41638 7.55094 8.4513 7.53017 8.47208L6.46951 7.41142ZM6.1165 8.27508C6.1165 8.4128 6.13492 8.53274 6.1639 8.64865L7.61911 8.28485C7.6162 8.27321 7.61594 8.27 7.61617 8.27179C7.61628 8.27255 7.61639 8.27361 7.61646 8.2747C7.61653 8.27577 7.6165 8.276 7.6165 8.27508H6.1165ZM6.18926 8.73009C6.20832 8.78093 6.22749 8.82552 6.23724 8.84856C6.24953 8.87763 6.24888 8.87725 6.24666 8.87059L7.66968 8.39624C7.6508 8.33958 7.62931 8.2892 7.61869 8.2641C7.60552 8.23298 7.59969 8.21923 7.59375 8.20341L6.18926 8.73009ZM6.29975 8.99255C6.48519 9.33253 6.78069 9.73552 7.16063 10.1845L8.30571 9.21563C7.95231 8.79797 7.73115 8.4843 7.61659 8.27428L6.29975 8.99255ZM7.16604 10.1909C7.54868 10.633 7.9594 11.0867 8.40615 11.542L9.47686 10.4915C9.05694 10.0635 8.66767 9.63381 8.3003 9.2093L7.16604 10.1909ZM8.41615 11.552C8.87218 11.9996 9.31992 12.4219 9.78108 12.8135L10.7519 11.67C10.3298 11.3116 9.91083 10.9172 9.46685 10.4815L8.41615 11.552ZM9.78205 12.8143C10.2376 13.1997 10.6418 13.4866 10.9906 13.6713L11.6924 12.3456C11.4745 12.2302 11.1621 12.0171 10.751 11.6692L9.78205 12.8143ZM11.063 13.7048C11.0619 13.7043 11.0638 13.7051 11.0704 13.708C11.0772 13.711 11.0853 13.7147 11.0978 13.7204C11.1201 13.7307 11.1565 13.7475 11.1961 13.7644L11.7869 12.3857C11.7682 12.3777 11.7504 12.3695 11.7227 12.3568C11.7002 12.3465 11.6608 12.3283 11.62 12.3121L11.063 13.7048ZM11.2282 13.7773C11.4044 13.8434 11.5667 13.8584 11.6998 13.8584V12.3584C11.6897 12.3584 11.6932 12.3578 11.7049 12.3596C11.7179 12.3616 11.7355 12.3656 11.7548 12.3728L11.2282 13.7773ZM11.6998 13.8584C12.0511 13.8584 12.3472 13.7217 12.5718 13.4971L11.5112 12.4364C11.5228 12.4248 11.5509 12.4009 11.5955 12.3819C11.6409 12.3626 11.6796 12.3584 11.6998 12.3584V13.8584ZM12.5683 13.5006L13.2016 12.8756L12.148 11.8079L11.5147 12.4329L12.5683 13.5006ZM13.2052 12.8721C13.3832 12.6941 13.522 12.5921 13.6218 12.54L12.9279 11.2101C12.6443 11.3581 12.3832 11.5728 12.1445 11.8114L13.2052 12.8721ZM13.6648 12.5157C13.7537 12.4616 13.812 12.4501 13.8665 12.4501V10.9501C13.5044 10.9501 13.1793 11.0552 12.8849 11.2344L13.6648 12.5157ZM13.8665 12.4501C13.9149 12.4501 13.9853 12.4594 14.0909 12.5026L14.6588 11.1143C14.3977 11.0074 14.1348 10.9501 13.8665 10.9501V12.4501ZM14.0909 12.5026C14.2112 12.5518 14.356 12.6309 14.5364 12.7536L15.3799 11.5132C15.1437 11.3526 14.9051 11.215 14.6588 11.1143L14.0909 12.5026ZM14.524 12.745L17.2823 14.7033L18.1507 13.4802L15.3924 11.5219L14.524 12.745ZM17.2896 14.7084C17.4098 14.7916 17.4605 14.8637 17.4884 14.9271L18.8613 14.323C18.7059 13.9698 18.4566 13.6919 18.1434 13.4751L17.2896 14.7084ZM17.4785 14.9036C17.5344 15.0434 17.5582 15.1566 17.5582 15.2751H19.0582C19.0582 14.9269 18.9819 14.6234 18.8712 14.3465L17.4785 14.9036ZM16.1665 7.50008C16.1665 7.08027 16.011 6.63998 15.8148 6.25821C15.6107 5.86126 15.3261 5.45702 14.9898 5.09668L13.8932 6.12015C14.1402 6.3848 14.3431 6.67641 14.4807 6.94404C14.6261 7.22685 14.6665 7.4199 14.6665 7.50008H16.1665ZM14.9914 5.09838C14.3954 4.45589 13.502 3.83341 12.4998 3.83341V5.33341C12.8977 5.33341 13.4209 5.61094 13.8916 6.11845L14.9914 5.09838ZM19.0832 7.50008C19.0832 3.86087 16.1391 0.916748 12.4998 0.916748V2.41675C15.3106 2.41675 17.5832 4.6893 17.5832 7.50008H19.0832Z" fill="#6D6D6D"/>
</svg>
