<svg width="14" height="19" viewBox="0 0 14 19" fill="none" xmlns="http://www.w3.org/2000/svg">
<path d="M7.13327 9.05841C7.04993 9.05008 6.94993 9.05008 6.85827 9.05841C4.87493 8.99175 3.29993 7.36675 3.29993 5.36675C3.29993 3.32508 4.94993 1.66675 6.99993 1.66675C9.0416 1.66675 10.6999 3.32508 10.6999 5.36675C10.6916 7.36675 9.1166 8.99175 7.13327 9.05841Z" stroke="#6D6D6D" stroke-width="1.5" stroke-linecap="round" stroke-linejoin="round"/>
<path d="M2.9666 12.1334C0.949935 13.4834 0.949935 15.6834 2.9666 17.0251C5.25827 18.5584 9.0166 18.5584 11.3083 17.0251C13.3249 15.6751 13.3249 13.4751 11.3083 12.1334C9.02494 10.6084 5.2666 10.6084 2.9666 12.1334Z" stroke="#6D6D6D" stroke-width="1.5" stroke-linecap="round" stroke-linejoin="round"/>
</svg>
